<?xml version="1.0" encoding="utf-8"?>
<!-- Generator: Adobe Illustrator 21.1.0, SVG Export Plug-In . SVG Version: 6.00 Build 0)  -->
<svg version="1.1" xmlns="http://www.w3.org/2000/svg" xmlns:xlink="http://www.w3.org/1999/xlink" x="0px" y="0px"
	 viewBox="-165 372.4 373.3 49.2" style="enable-background:new -165 372.4 373.3 49.2;" xml:space="preserve">
<style type="text/css">
	.st0{fill:#333333;}
	.st1{fill:#EA590C;}
	.st2{opacity:0.5;fill:#FFFFFF;}
	.st3{fill:#FFFFFF;}
</style>
<g id="Calque_1">
	<g>
		<path class="st0" d="M-88.7,400.2h-2.5v10h-3.6v-26.1c2.6-0.1,5.3-0.2,7.3-0.2c5.6,0,9.2,2.8,9.2,7.3
			C-78.3,397.1-82.9,400.2-88.7,400.2z M-88.1,387h-3.1v10.3h2.8c3.4,0,6.3-1.9,6.3-5.4C-82.1,389.1-84.2,387-88.1,387z"/>
		<path class="st0" d="M-55.8,410.3v-11.9H-70v11.9h-3.6v-26.1h3.6v11h14.1v-11h3.6v26.1H-55.8z"/>
		<path class="st0" d="M-38.5,400.2H-41v10h-3.6v-26.1c2.6-0.1,5.3-0.2,7.3-0.2c5.6,0,9.2,2.8,9.2,7.3
			C-28.1,397.1-32.7,400.2-38.5,400.2z M-37.9,387H-41v10.3h2.8c3.4,0,6.3-1.9,6.3-5.4C-31.9,389.1-34,387-37.9,387z"/>
		<path class="st0" d="M9.7,410.5H6.8l-6-16.8c-0.5-1.4-1.1-4.3-1.1-4.3s-0.5,2.8-1.1,4.3l-6,16.8h-2.9l-8.3-26.3h4l5.3,17.7
			c0.4,1.3,0.9,4.2,0.9,4.2s0.5-2.9,0.9-4.2l6-17.7h2.8l6.1,17.6c0.5,1.3,1,4.2,1,4.2s0.4-2.8,0.8-4.1l5.3-17.7H18L9.7,410.5z"/>
		<path class="st0" d="M35.1,410.2c-0.5,0.2-1.3,0.3-2,0.3c-1.5,0-2.6-0.7-2.9-2.3H30c-1.3,1.3-3.2,2.4-5.8,2.4c-3,0-5.3-2-5.3-4.9
			c0-3.5,3-6.7,11-7.1v-2.4c0-1.7-1-2.8-2.8-2.8c-1.9,0-4.4,0.9-6.5,2.3l-0.3-2.6c2.1-1.5,4.8-2.5,7.9-2.5c3.1,0,5.2,1.8,5.2,4.9
			c0,1.2-0.1,8.9-0.1,9.7c0,1.5,0.7,2.3,2.2,2.4L35.1,410.2z M29.8,401.2c-6.2,0.3-7.6,2.6-7.6,4.1c0,1.6,1.2,2.7,3.3,2.7
			c1.7,0,3.4-0.8,4.4-1.7V401.2z"/>
		<path class="st0" d="M49.1,395c-1-0.5-2.1-0.8-3.3-0.8c-1.2,0-2.4,0.6-3.1,1.4v14.8h-3.4v-18.9l3.3-0.3l-0.1,2.8h0.1
			c1-1.8,2.6-3,4.6-3c1,0,1.8,0.2,2.5,0.6L49.1,395z"/>
		<path class="st0" d="M67.4,401H54.8c0,3.6,2,6.7,6,6.7c2.2,0,4.2-0.5,6.3-1.5l-0.2,2.9c-2,1-4.1,1.5-6.8,1.5
			c-5.4,0-8.6-4.2-8.6-9.7c0-6.2,3.9-10.3,8.8-10.3c4.7,0,7.3,3.4,7.3,7.7C67.6,399.2,67.4,400.4,67.4,401z M59.8,393.4
			c-2.7,0-4.4,2.6-4.8,5.1h9.4C64.3,395.6,62.6,393.4,59.8,393.4z"/>
		<path class="st0" d="M89.1,410.2c-0.5,0.2-1.4,0.3-2.2,0.3c-1.6,0-2.6-1-2.9-2.4h-0.2c-1.4,1.6-3.2,2.5-5.5,2.5
			c-4.9,0-8-4.1-8-9.5c0-6,3.8-10.3,9.7-10.3c1.2,0,2.9,0.4,3.7,0.8v-11.3H87v25.1c0,1.5,0.7,2.3,2.2,2.4L89.1,410.2z M83.6,394.9
			c-1-0.8-2.6-1.3-4.3-1.3c-3.3,0-5.7,3-5.7,6.9c0,4.4,2.2,7.3,5.6,7.3c1.8,0,3.1-0.7,4.4-1.7V394.9z"/>
		<path class="st0" d="M107.6,401H95c0,3.6,2,6.7,6,6.7c2.2,0,4.2-0.5,6.3-1.5l-0.2,2.9c-2,1-4.1,1.5-6.8,1.5
			c-5.4,0-8.6-4.2-8.6-9.7c0-6.2,3.9-10.3,8.8-10.3c4.7,0,7.3,3.4,7.3,7.7C107.8,399.2,107.6,400.4,107.6,401z M100,393.4
			c-2.7,0-4.4,2.6-4.8,5.1h9.4C104.5,395.6,102.8,393.4,100,393.4z"/>
		<path class="st0" d="M115.7,410.7c-2.2,0-3.9-0.5-5.3-1.5l0.5-2.9c1.3,1,3.3,1.6,5.2,1.6c1.7,0,3.6-0.7,3.6-2.6
			c0-3.8-8.6-3-8.6-8.9c0-3.7,3.3-5.6,6.9-5.6c1.7,0,3.4,0.5,4.6,1.1l-0.5,2.8c-1.3-0.6-3-1.1-4.6-1.1c-1.6,0-3.1,0.8-3.1,2.3
			c0,3.8,8.7,3,8.7,8.8C123.1,408.8,119.4,410.7,115.7,410.7z"/>
		<path class="st0" d="M139,410.3l-7.1-9.7h-0.8v9.7h-3.4v-29.9h3.4v18.9c1.2-1.2,7.4-8,7.4-8h4.6l-8.4,8l8.4,11.1H139z"/>
		<path class="st0" d="M171.3,410.3l-3-8.1h-9.6l-2.8,8.1h-3.7l9.9-26.1h3.3l9.9,26.1H171.3z M164.1,390.8c-0.3-0.9-0.7-2.9-0.7-2.9
			s-0.3,2-0.7,2.9l-3.1,8.4h7.6L164.1,390.8z"/>
		<path class="st0" d="M185.7,400.2h-2.5v10h-3.6v-26.1c2.6-0.1,5.3-0.2,7.3-0.2c5.6,0,9.2,2.8,9.2,7.3
			C196.1,397.1,191.5,400.2,185.7,400.2z M186.3,387h-3.1v10.3h2.8c3.4,0,6.3-1.9,6.3-5.4C192.3,389.1,190.2,387,186.3,387z"/>
		<path class="st0" d="M200.8,410.3v-26.1h3.6v26.1H200.8z"/>
	</g>
	<g id="Calque_4">
		<rect x="-165" y="372.4" class="st1" width="49.2" height="49.2"/>
	</g>
</g>
<g id="Calque_4_1_">
	<path class="st2" d="M-122.1,384.5c-2-0.9-4.3,0.1-5.2,2.1l-7.6,17.8c-0.9,2,0.1,4.3,2.1,5.2c2,0.9,4.3-0.1,5.2-2.1l7.6-17.8
		C-119.1,387.7-120.1,385.4-122.1,384.5z"/>
	<path class="st2" d="M-139.9,384.5c-2-0.9-4.3,0.1-5.2,2.1l-7.6,17.8c-0.9,2,0.1,4.3,2.1,5.2c2,0.9,4.3-0.1,5.2-2.1l7.6-17.8
		C-137,387.7-137.9,385.4-139.9,384.5z"/>
	<path class="st3" d="M-133.9,384.2c-1.9,0-5,0-7.7,0c4.3,0.8-1.7,23.6,2.5,25.6h7.7C-135.6,407.8-129.6,385-133.9,384.2z"/>
	<path class="st3" d="M-151.4,384.2c-1.9,0-5,0-7.7,0c4.3,0.8-1.7,23.6,2.5,25.6h7.7C-153.1,407.8-147.1,385-151.4,384.2z"/>
</g>
</svg>
